<svg width="1000" height="1000" viewBox="0 0 1000 1000" fill="none" xmlns="http://www.w3.org/2000/svg">
<path d="M461.523 128.125C463.867 128.125 466.797 129.297 469.336 132.812C458.008 116.602 482.031 123.633 483.398 108.203C497.07 98.0469 492.188 91.4062 496.094 91.0156L500.391 87.5C491.992 90.625 489.062 91.2109 486.719 91.2109H482.812C479.883 91.2109 475 91.7969 463.477 95.3125C437.109 97.2656 418.164 125.781 409.18 126.563C400 131.445 400.391 132.422 402.539 132.422C403.125 132.422 403.906 132.227 404.688 132.227C405.469 132.227 406.055 132.031 406.641 132.031C408.789 132.031 408.203 133.008 395.703 138.867C398.633 139.648 373.828 150.586 373.633 167.773C372.852 174.414 375.586 178.906 380.078 178.906C383.984 178.906 388.867 175.977 394.141 168.555C411.719 148.242 448.828 146.289 464.844 133.984C454.883 133.203 456.836 128.125 461.523 128.125ZM372.266 134.961C370.508 134.961 372.852 132.812 375.391 130.664C378.125 128.516 381.25 126.367 381.25 126.367L381.055 126.563C391.602 122.461 385.156 121.484 390.82 118.75H390.43C389.258 118.75 391.406 117.188 393.359 115.43C395.312 113.867 397.07 112.109 395.312 112.109C394.336 112.109 391.797 112.695 387.5 114.453C388.867 112.5 394.141 111.133 401.562 107.031C390.82 110.547 382.422 112.695 381.445 112.695C380.664 112.695 385.156 111.133 398.633 107.031C399.219 107.031 399.805 107.227 400.195 107.227C401.562 107.227 402.148 106.836 401.953 106.445C401.758 106.055 400.977 105.859 399.609 105.859C380.273 107.422 365.82 119.531 370.117 121.094C372.656 120.312 374.414 119.922 375.586 119.922C378.125 119.922 376.953 122.07 371.875 125.195C374.219 130.664 332.812 144.727 328.125 149.805C330.469 148.438 332.031 148.047 332.812 148.047C335.938 148.047 331.836 154.102 327.734 157.031C330.273 159.375 332.227 160.156 333.789 160.156C337.891 160.156 339.648 154.492 343.164 152.734C343.945 154.297 344.727 155.078 345.703 155.078C349.023 155.078 353.125 146.875 356.445 142.578C357.422 143.555 358.594 144.336 360.156 144.336C363.281 144.336 367.969 141.797 375.391 134.57C373.828 134.766 372.656 134.961 372.266 134.961ZM327.344 170.898C320.312 175.195 316.602 176.953 315.039 176.953C312.109 176.953 316.016 171.484 319.531 165.82C323.047 160.352 326.172 154.883 321.68 154.883C319.531 154.883 315.625 156.055 309.375 159.18C292.383 170.508 263.672 201.758 250.977 201.758H249.805C270.312 186.719 264.258 157.227 292.969 149.609C321.289 133.398 340.625 138.477 365.82 119.922C358.398 123.633 347.461 127.734 344.922 127.734C343.359 127.734 345.703 125.781 355.859 120.898C354.883 121.094 354.102 121.289 353.516 121.289C346.68 121.289 398.438 102.734 400.977 102.344C379.688 105.273 345.312 123.047 340.625 123.047C340.039 123.047 340.039 122.852 340.039 122.461C340.82 121.875 340.82 121.484 340.039 121.484C337.5 121.484 326.953 125 316.211 128.516C305.664 132.031 294.922 135.742 292.578 135.742C291.797 135.742 291.797 135.352 292.969 134.57C200.781 186.914 123.828 275.195 99.8047 379.883C109.766 402.734 102.93 446.289 119.336 458.984C138.086 474.805 103.32 520.703 112.5 549.023C121.875 600.195 162.305 635.156 166.602 687.5C174.023 723.438 201.172 767.383 212.5 790.234C221.094 798.828 244.727 823.633 248.828 823.633C250.391 823.633 249.414 819.922 243.164 809.961C239.258 798.828 216.602 769.727 227.539 769.727C228.125 769.727 228.711 769.727 229.492 769.922C216.016 756.25 259.375 759.961 229.102 741.406C225.586 737.109 224.805 735.742 225.586 735.742C226.562 735.742 229.297 737.305 232.422 738.867C235.742 740.43 239.648 741.992 242.773 741.992C247.656 741.992 250.977 738.672 249.023 726.562C249.805 726.953 250.586 726.953 251.172 726.953C256.25 726.953 254.492 716.992 254.883 707.031C255.273 697.07 257.812 687.109 271.484 687.109C273.047 687.109 274.805 687.305 276.562 687.5C308.203 670.312 280.664 622.852 316.992 605.469C315.625 566.016 262.695 564.062 242.773 548.047C239.453 550 236.328 550.586 233.203 550.586C229.688 550.586 226.562 549.805 223.828 548.828C221.094 548.047 218.555 547.07 216.797 547.07C216.406 547.07 216.016 547.07 215.625 547.266C249.609 538.281 224.805 491.016 196.68 491.016H194.727C192.578 470.508 182.031 478.32 180.859 461.328C179.102 462.305 177.344 462.695 175.586 462.695C170.898 462.695 166.602 459.375 162.891 456.25C159.18 452.93 156.055 449.805 153.32 449.805C151.172 449.805 149.219 451.953 147.461 458.203C149.414 448.633 148.828 445.508 146.875 445.508C144.922 445.508 141.406 448.828 137.5 452.148C133.789 455.469 129.492 458.789 126.172 458.789H125.195C102.344 442.578 125.391 413.867 113.281 391.797C121.094 383.398 124.219 369.141 120.703 369.141C118.945 369.141 115.43 372.656 109.961 382.227C102.148 362.305 122.852 317.188 140.43 314.648C141.016 314.648 141.406 314.453 141.992 314.453C145.117 314.453 148.242 316.016 150.977 319.336C152.539 328.516 148.633 347.852 150.195 347.852C150.977 347.852 152.539 343.945 156.445 333.789C161.523 310.547 197.07 293.75 200.781 279.492C200.977 279.688 200.977 279.688 201.172 279.688C205.273 279.688 231.641 256.445 243.164 253.906C247.656 249.414 250.781 247.852 253.125 247.852C255.664 247.852 257.031 249.805 258.008 251.562C258.984 253.516 259.766 255.273 260.742 255.273C261.523 255.273 262.5 254.102 264.258 250.781C258.203 238.867 273.828 227.539 269.531 227.539C267.969 227.539 263.281 229.102 253.711 233.008C252.148 233.789 251.367 233.984 250.977 233.984C249.805 233.984 254.492 230.859 261.328 227.734C268.164 224.609 276.758 221.484 283.984 221.484C287.5 221.484 290.625 222.266 292.969 224.219C323.242 216.992 306.641 207.031 308.203 207.031H308.594C317.188 201.953 314.648 182.812 327.344 170.898ZM191.992 250.781C191.602 250.781 193.359 248.242 199.219 241.016C211.328 232.031 221.094 225.977 209.961 220.117C214.844 217.969 219.531 215.43 224.023 212.695C223.828 222.266 215.82 245.508 211.523 245.508C210.547 245.508 209.57 244.141 209.18 241.211C211.719 236.719 211.914 234.961 210.938 234.961C209.375 234.961 204.883 238.867 200.586 242.969C196.289 246.68 192.383 250.781 191.992 250.781ZM203.125 256.055C197.852 256.055 198.828 252.734 215.039 249.414C222.07 248.438 216.602 248.828 225 246.875C216.797 253.516 207.617 256.055 203.125 256.055ZM506.836 236.328C509.18 235.938 510.937 235.938 512.305 235.938C517.969 235.938 515.43 238.281 512.109 240.625C508.789 242.969 504.688 245.312 507.031 245.312C508.398 245.312 512.109 244.531 519.727 242.383C558.203 239.648 504.687 207.031 513.281 196.094L510.938 195.312C495.117 215.43 521.484 215.82 506.836 236.328ZM490.82 237.109C493.555 237.109 497.07 233.984 500.781 225.195C505.859 219.141 503.711 218.359 498.242 215.43C483.203 219.336 484.57 237.109 490.82 237.109ZM625.586 299.023C625 299.023 624.609 299.219 624.219 299.414C625.781 299.805 627.344 300.195 628.906 300.195C627.344 299.414 626.367 299.023 625.586 299.023ZM887.891 347.656C891.211 354.883 892.969 357.812 893.164 357.812C894.531 357.812 868.555 294.531 857.812 283.203C801.758 191.016 709.57 120.508 604.492 94.1406H604.297C601.562 94.1406 604.688 95.5078 608.398 96.875C612.109 98.2422 616.602 99.6094 616.602 99.6094C616.602 99.6094 613.672 98.6328 604.688 96.0938C594.727 93.1641 584.57 91.0156 574.219 90.2344C572.461 90.8203 616.992 108.398 646.875 117.578C636.914 114.453 626.562 111.719 624.023 111.719C622.266 111.719 624.023 112.891 631.25 116.016C622.461 113.477 618.75 112.305 618.359 112.305C617.773 112.305 630.078 116.406 641.602 120.508C653.32 124.609 664.453 128.711 661.328 128.711C660.547 128.711 658.398 128.32 655.078 127.734C665.039 133.203 668.555 135.352 667.969 135.352C666.992 135.352 654.688 129.492 641.992 123.633C629.492 117.773 616.797 111.914 615.039 111.914C614.062 111.914 616.602 113.867 625.195 118.945C636.914 124.023 648.633 129.102 645.312 129.102C643.75 129.102 639.258 128.125 630.469 125.586C650 135.547 616.602 131.641 627.93 145.117C621.68 139.258 619.141 137.305 618.555 137.305C617.969 137.305 619.531 139.648 621.094 141.992C622.656 144.336 623.828 146.68 622.461 146.68H622.07C635.742 161.523 612.5 148.242 629.102 161.523C616.602 155.859 595.312 146.484 604.883 146.484C607.227 146.484 611.719 147.07 618.75 148.633C606.055 133.789 570.117 133.203 569.336 131.445C560.352 132.031 560.156 138.867 561.719 151.367C561.523 171.094 542.188 171.484 544.727 182.812C544.727 182.617 544.922 182.617 544.922 182.617C545.312 182.617 545.508 186.523 546.68 190.625C548.047 194.531 550.391 198.633 555.469 198.633C558.203 198.633 561.719 197.461 566.016 194.531C572.07 205.469 577.539 209.375 581.836 209.375C588.281 209.375 592.188 200.586 591.797 192.578C584.766 188.672 575.586 156.25 585.742 156.25C587.305 156.25 589.258 157.031 591.797 158.789C575.977 197.656 654.297 171.68 609.961 189.453C619.922 202.539 603.711 201.953 608.398 217.773C600.781 219.922 592.383 221.875 584.961 221.875C574.023 221.875 565.625 217.188 566.602 200.781C552.93 208.008 580.273 232.422 553.125 232.422H551.562C538.477 256.445 489.453 248.242 527.93 273.633C530.078 284.766 523.047 286.719 514.062 286.719C511.719 286.719 509.18 286.523 506.641 286.328C504.102 286.133 501.562 286.133 499.219 286.133C489.062 286.133 481.836 288.672 488.086 304.492C483.594 320.898 494.141 328.125 507.031 328.125C522.656 328.125 541.797 317.969 543.164 301.172C551.562 288.477 562.305 283.203 573.438 283.203C591.016 283.203 609.57 296.484 621.68 312.891C622.656 314.453 623.438 315.039 623.828 315.039C624.805 315.039 623.828 311.133 623.438 307.227C623.047 304.102 623.047 300.977 624.219 300C606.836 295.117 593.555 274.023 599.414 274.023C601.367 274.023 605.469 276.367 612.109 282.617H613.086C624.023 282.617 632.617 291.211 639.258 299.805C646.094 308.398 651.172 316.992 655.664 316.992C657.422 316.992 659.18 315.43 660.742 311.914C659.961 310.742 658.008 307.422 657.031 304.102C655.859 300 655.859 295.898 661.133 295.898C663.281 295.898 666.211 296.68 670.312 298.242C683.594 294.727 661.914 260.156 679.492 260.156C681.25 260.156 683.398 260.547 686.133 261.328C685.938 267.383 688.672 269.531 691.211 269.531C696.289 269.531 701.367 262.305 689.062 260.156C693.75 255.664 696.484 253.906 698.438 253.906C705.273 253.906 699.805 276.562 723.438 276.562C731.445 295.508 653.906 277.93 678.711 314.258C684.375 318.359 691.406 319.141 698.242 319.141C700.391 319.141 702.344 319.141 704.297 318.945C706.25 318.945 708.203 318.75 709.961 318.75C722.07 318.75 730.664 321.68 725.391 346.68C718.945 351.367 711.719 352.93 704.297 352.93C697.656 352.93 691.016 351.758 684.57 350.586C678.125 349.414 671.875 348.242 666.211 348.242C657.422 348.242 650.391 351.172 646.094 361.328C623.242 351.953 593.164 351.562 596.094 323.242C556.25 328.906 514.648 325.977 485.352 350.391C483.594 386.133 422.266 397.656 437.109 438.281C419.336 475.781 458.594 528.32 498.633 528.32C500 528.32 501.562 528.32 502.93 528.125C524.805 527.93 546.875 518.164 566.211 518.164C576.172 518.164 585.156 520.703 592.969 528.516C594.727 528.32 596.289 528.125 597.656 528.125C627.539 528.125 588.086 575.586 623.828 583.594C656.25 617.188 603.906 651.758 629.492 683.984C632.227 709.18 644.727 730.273 644.727 754.883C648.047 755.273 651.172 755.469 654.492 755.469C695.703 755.469 721.484 719.531 745.703 692.383C738.281 651.758 803.32 643.75 781.055 598.242C770.703 548.438 830.078 518.945 826.758 469.141C827.344 462.109 825.391 459.961 822.461 459.961C819.531 459.961 815.234 462.109 811.133 464.062C806.836 466.211 802.148 468.164 798.438 468.164C793.555 468.164 789.844 464.844 789.453 453.906C760.742 427.148 747.656 390.82 720.898 361.328C755.664 378.125 775.391 416.016 791.406 450.391C792.773 450.781 794.141 450.977 795.703 450.977C824.023 450.977 863.477 383.203 820.508 366.797C818.164 373.242 815.039 375.586 811.328 375.586C804.883 375.586 797.461 367.773 792.188 360.156C786.914 352.344 784.18 344.531 787.109 344.531C789.062 344.531 793.359 347.656 800.781 355.859C809.18 361.133 817.383 362.5 825.977 362.5C834.375 362.5 842.969 361.133 851.953 360.352C863.281 364.844 868.164 379.297 871.68 379.297C872.266 379.297 873.047 378.711 873.633 377.344C882.617 398.828 892.969 437.109 902.344 447.461C897.461 414.648 896.289 379.883 887.891 347.656ZM778.906 302.539C756.836 296.875 749.609 269.531 732.227 253.711C732.031 249.414 738.477 250.195 736.914 242.969C760.352 250.195 752.734 257.422 750.586 258.789C759.18 273.047 783.203 282.812 778.906 302.539ZM475.586 153.906C454.297 160.156 451.367 153.32 455.078 166.406C456.641 167.578 459.57 167.969 462.5 167.969C472.852 168.164 486.914 162.109 475.586 153.906ZM788.281 691.992C816.211 668.359 819.727 640.234 821.094 611.719C808.594 636.133 771.484 663.086 788.281 691.992ZM661.133 311.133C660.938 311.328 660.938 311.328 660.938 311.523C661.133 311.914 661.328 311.914 661.328 311.914C661.328 311.914 661.328 311.719 661.133 311.133ZM500 0C223.828 0 0 223.828 0 500C0 776.172 223.828 1000 500 1000C776.172 1000 1000 776.172 1000 500C1000 223.828 776.172 0 500 0ZM500 961.523C245.117 961.523 38.4766 754.883 38.4766 500C38.4766 245.117 245.117 38.4766 500 38.4766C754.883 38.4766 961.523 245.117 961.523 500C961.523 754.883 754.883 961.523 500 961.523Z" fill="black"/>
</svg>
